<svg width="78" height="30" viewBox="0 0 78 30" fill="none" xmlns="http://www.w3.org/2000/svg">
<path fill-rule="evenodd" clip-rule="evenodd" d="M7 10C7 9.44772 7.44772 9 8 9H22C22.5523 9 23 9.44772 23 10C23 10.5523 22.5523 11 22 11H8C7.44772 11 7 10.5523 7 10ZM7 15C7 14.4477 7.44772 14 8 14H22C22.5523 14 23 14.4477 23 15C23 15.5523 22.5523 16 22 16H8C7.44772 16 7 15.5523 7 15ZM8 19C7.44772 19 7 19.4477 7 20C7 20.5523 7.44772 21 8 21H22C22.5523 21 23 20.5523 23 20C23 19.4477 22.5523 19 22 19H8Z" fill="black"/>
<mask id="mask0_7_163" style="mask-type:alpha" maskUnits="userSpaceOnUse" x="7" y="9" width="16" height="12">
<path fill-rule="evenodd" clip-rule="evenodd" d="M7 10C7 9.44772 7.44772 9 8 9H22C22.5523 9 23 9.44772 23 10C23 10.5523 22.5523 11 22 11H8C7.44772 11 7 10.5523 7 10ZM7 15C7 14.4477 7.44772 14 8 14H22C22.5523 14 23 14.4477 23 15C23 15.5523 22.5523 16 22 16H8C7.44772 16 7 15.5523 7 15ZM8 19C7.44772 19 7 19.4477 7 20C7 20.5523 7.44772 21 8 21H22C22.5523 21 23 20.5523 23 20C23 19.4477 22.5523 19 22 19H8Z" fill="white"/>
</mask>
<g mask="url(#mask0_7_163)">
<rect width="30" height="30" fill="#2C2738"/>
</g>
<path d="M44.192 12.592H44.112L43.168 14.464L40.496 19.328L37.824 14.464L36.88 12.592H36.8V22H35.488V10.832H37.28L40.48 16.848H40.56L43.776 10.832H45.504V22H44.192V12.592ZM51.4484 22.192C50.883 22.192 50.371 22.0907 49.9124 21.888C49.4644 21.6853 49.075 21.3973 48.7444 21.024C48.4244 20.64 48.1737 20.1867 47.9924 19.664C47.8217 19.1307 47.7364 18.5333 47.7364 17.872C47.7364 17.2213 47.8217 16.6293 47.9924 16.096C48.1737 15.5627 48.4244 15.1093 48.7444 14.736C49.075 14.352 49.4644 14.0587 49.9124 13.856C50.371 13.6533 50.883 13.552 51.4484 13.552C52.003 13.552 52.499 13.6533 52.9364 13.856C53.3737 14.0587 53.747 14.3413 54.0564 14.704C54.3657 15.056 54.6004 15.4773 54.7604 15.968C54.931 16.4587 55.0164 16.9973 55.0164 17.584V18.192H49.0804V18.576C49.0804 18.928 49.1337 19.2587 49.2404 19.568C49.3577 19.8667 49.5177 20.128 49.7204 20.352C49.9337 20.576 50.1897 20.752 50.4884 20.88C50.7977 21.008 51.1444 21.072 51.5284 21.072C52.051 21.072 52.5044 20.9493 52.8884 20.704C53.283 20.4587 53.587 20.1067 53.8004 19.648L54.7124 20.304C54.4457 20.8693 54.0297 21.328 53.4644 21.68C52.899 22.0213 52.227 22.192 51.4484 22.192ZM51.4484 14.624C51.0964 14.624 50.7764 14.688 50.4884 14.816C50.2004 14.9333 49.9497 15.104 49.7364 15.328C49.5337 15.552 49.3737 15.8187 49.2564 16.128C49.139 16.4267 49.0804 16.7573 49.0804 17.12V17.232H53.6404V17.056C53.6404 16.32 53.4377 15.7333 53.0324 15.296C52.6377 14.848 52.1097 14.624 51.4484 14.624ZM57.1256 13.744H58.4056V17.184H62.5336V13.744H63.8136V22H62.5336V18.304H58.4056V22H57.1256V13.744ZM73.2999 22.192C72.2545 22.192 71.4065 21.8507 70.7559 21.168C70.1159 20.4853 69.7585 19.5253 69.6839 18.288H67.8119V22H66.5319V13.744H67.8119V17.2H69.7159C69.8225 16.0373 70.1905 15.1413 70.8199 14.512C71.4599 13.872 72.2865 13.552 73.2999 13.552C73.8439 13.552 74.3399 13.6533 74.7879 13.856C75.2359 14.048 75.6145 14.3307 75.9239 14.704C76.2439 15.0667 76.4892 15.5147 76.6599 16.048C76.8305 16.5813 76.9159 17.1893 76.9159 17.872C76.9159 18.5547 76.8305 19.1627 76.6599 19.696C76.4892 20.2293 76.2439 20.6827 75.9239 21.056C75.6145 21.4187 75.2359 21.7013 74.7879 21.904C74.3399 22.096 73.8439 22.192 73.2999 22.192ZM73.2999 21.056C73.9825 21.056 74.5265 20.8533 74.9319 20.448C75.3372 20.0427 75.5399 19.3813 75.5399 18.464V17.28C75.5399 16.3627 75.3372 15.7013 74.9319 15.296C74.5265 14.8907 73.9825 14.688 73.2999 14.688C72.6172 14.688 72.0732 14.8907 71.6679 15.296C71.2625 15.7013 71.0599 16.3627 71.0599 17.28V18.464C71.0599 19.3813 71.2625 20.0427 71.6679 20.448C72.0732 20.8533 72.6172 21.056 73.2999 21.056Z" fill="#2C2738"/>
</svg>
