<?xml version="1.0" encoding="UTF-8" standalone="no" ?>
<!DOCTYPE svg PUBLIC "-//W3C//DTD SVG 1.1//EN" "http://www.w3.org/Graphics/SVG/1.1/DTD/svg11.dtd">
<svg xmlns="http://www.w3.org/2000/svg" xmlns:xlink="http://www.w3.org/1999/xlink" version="1.1" width="500" height="500" viewBox="0 0 500 500" xml:space="preserve">
<desc>Created with Fabric.js 4.6.0</desc>
<defs>
</defs>
<g transform="matrix(1 0 0 1 250 250)" id="aH6L72Slt-blSlqluaZU6"  >
<path style="stroke: none; stroke-width: 1; stroke-dasharray: none; stroke-linecap: butt; stroke-dashoffset: 0; stroke-linejoin: miter; stroke-miterlimit: 4; fill: rgb(114,192,204); fill-rule: nonzero; opacity: 1;" vector-effect="non-scaling-stroke"  transform=" translate(-250, -249.94)" d="M 35.70618 431.82293 L 0 498.99531 L 0.8929 133.00596000000002 C 0.8929 59.473410000000015 60.25447 0.00007000000002221896 133.89882 0.00007000000002221896 L 498.99568 0.00007000000002221896 C 395.22434999999996 32.24711000000002 287.10098 105.11049000000003 215.68862000000001 188.12758000000002 C 136.91177000000002 278.95535 92.16724000000002 341.44159 35.70669000000001 431.82300000000004 M 499.88858 0 C 499.88858 0 340.54909 74.53671 291.89922 186.45394 C 266.01235 246.26211999999998 259.65218000000004 318.23261 212.67567000000003 363.42334 C 180.42863000000003 394.44322 134.79121000000004 406.04781 95.17969000000002 426.24406 C 69.29282000000002 439.63394 21.089150000000018 471.43478 0.4462000000000188 499.88841 L 366.88215 499.88841 C 440.52650000000006 499.88841 500 440.415 500 366.88252 C 499.88858 366.88252 499.88858 0.0003300000000194814 499.88858 0.0003300000000194814 z" stroke-linecap="round" />
</g>
</svg>